<svg xmlns="http://www.w3.org/2000/svg" width="250" height="250" fill="none" viewBox="0 0 250 250">
<!-- SVG created with Arrow, by QuiverAI (https://quiver.ai) -->
  <path d="m197.8 96.96c-22.55 22.16-54.44 43.86-86.83 55.8l-0.11 0.52c6.69 1.56 15.41 1.79 23.05 0.86 27.72-3.44 53.77-24 63.51-54.13l0.38-3.05z" fill="url(#paint0_linear_532_36)"/>
  <path d="m192.8 110c-14.7 12.91-34.8 26.82-51.11 34.24l-18.49 9.97c3.83 0.37 7.95 0.25 11.91-0.17 24.03-2.38 47.08-19.28 57.69-44.04z" fill="url(#paint1_linear_532_36)"/>
  <path d="m43.68 88.58c-19.69 20.88-30.2 36.07-29.73 50.06 0.52 14.64 13.66 22.33 34.37 21.87 44.93-1.03 105-29.15 148.5-72.6 21.97-22.15 36.79-43.94 36.58-61.2-0.23-13.94-11.32-21.33-29.18-20.7-11.07 0.38-21.24 2.35-35.28 6.21l-0.38 0.51 1.56 0.37c25.99-5.77 39.73-2.23 43.33 7.01 6.9 18.2-17.34 47.67-52.83 74.52-34.07 26.01-71.51 47.84-105.5 48.21-20.94 0.87-32.36-5.73-32.15-16.28 0.15-9.45 6.93-19.33 21.03-36.54l-0.31-1.44z" fill="url(#paint2_linear_532_36)"/>
  <path d="m16.43 144.4c4.16 10.55 15.28 14.56 31.56 14.17 46.32-1.16 102-31.11 140.8-68.08 22.51-21.47 43.1-44.34 43.58-64.37 0.27-10.47-8.3-17.79-18.34-19.05 6.79 3.09 9.89 9.94 9.69 16.68-0.53 17.51-17.67 39.85-43.5 62.99-38.12 34.02-89.58 66.12-133.1 66.94-15.08 0.29-25.78-2.77-30.7-9.28z" fill="url(#paint3_linear_532_36)"/>
  <path d="m48.81 76.21c0-38.17 31.9-71.5 74.67-71.5 34.23 0 57.58 23.52 67.87 49.58-20.54 25.85-64.42 58.47-114.6 75.78-15.78-12.14-27.98-31.42-27.98-53.86z" fill="url(#paint4_radial_532_36)"/>
  <path d="m184.2 38.92c-38.22 9.99-89.92 44-114.2 82.59 2.1 2.73 4.49 5.31 6.98 7.56 36.02-11.89 83.72-41.29 114.2-74.86-2.02-5.45-4.22-10.5-6.96-15.29z" fill="url(#paint5_linear_532_36)"/>
  <path d="m57.63 105.1c20.89-34.83 64.55-71.01 111.4-86.02-8.67-8.15-23.44-14.45-45.15-14.45-40.62 0-73.53 33.26-73.53 71.17 0 10.39 2.68 20.58 7.25 29.3z" fill="url(#paint6_radial_532_36)"/>
  <path d="m167.9 19.41c-45.29 9.77-91.98 48.31-111.2 84.9 3.15 6.4 7.61 12.76 11 16.4 27.43-35.82 68.46-63.63 116.4-81.54-4.62-7.79-9.01-14.04-16.26-19.76z" fill="url(#paint7_linear_532_36)"/>
  <path d="m46.12 92.73c-11.42 12.93-16.91 23.42-15.41 33.3 1.34 8.16 8.45 9.96 19.2 9.33v-0.34c-8.78-2.58-13.53-7.94-14.11-14.96-0.57-7.25 3.36-15.8 10.62-26.74l-0.3-0.59z" fill="url(#paint8_linear_532_36)"/>
  <path d="m39.92 189.3c-16.81 0.71-28.67 12.86-28.67 28.09 0 15.12 11.86 27.99 28.67 27.99 16.96 0 29.96-12.53 29.96-28.43 0-14.5-11.87-27.99-29.96-27.65zm0.63 10.45c10.55 0 18.01 8.1 18.01 17.29 0 9.88-7.62 17.91-17.9 17.4-10.12-0.38-17.91-7.67-17.91-17.62 0-9.82 8.1-17.07 17.8-17.07z" fill="url(#paint9_linear_532_36)"/>
  <path d="m76.63 205.7v38.7h12.19v-16.42c0-8.87 4.86-12.01 11.49-11.86 0.97 0 2.2 0.2 3.17 0.48l0.27-11.19c-7.64-0.51-11.9 1.11-15.04 6.19l-0.15-5.9h-11.93z" fill="url(#paint10_linear_532_36)"/>
  <path d="m108.7 189.1v55.32h11.42l0.11-5.45c3.34 5.67 8.4 6.49 13.57 6.21 11.97-0.61 18.98-10.26 18.88-20.26-0.15-11.29-8.24-20.42-20.11-20.19-5.39 0-9.32 2.74-11.8 5.21l-0.11-20.84h-11.96zm21.56 24.14c7.64 0 10.38 6.15 10.23 11.82-0.26 6.62-4.74 10.98-10.59 10.62-5.96-0.34-9.67-4.75-9.67-10.47 0-6.45 4.57-11.97 10.03-11.97z" fill="url(#paint11_linear_532_36)"/>
  <path d="m164.9 188.5c-5.29 0-7.2 4-7.2 6.64 0 4.22 2.9 6.28 6.89 6.28 5.5 0 6.95-4.15 6.95-6.58 0-3.38-2.68-6.34-6.64-6.34zm-6.16 16.81v38.98h11.57v-38.98h-11.57z" fill="url(#paint12_linear_532_36)"/>
  <path d="m182.3 195.6v10.6h-7.51v8.54h7.61v16.37c0 8.97 6.01 14.05 14.54 14.05 3.44 0 6.18-0.38 8.56-2.05l-1.34-7.84c-1.34 0.97-3.47 1.44-5.22 1.44-3.25 0-5.31-1.75-5.31-5.45v-16.32h10.22v-8.68l-10.79 0.15v-10.81h-10.76z" fill="url(#paint13_linear_532_36)"/>
  <path d="m210.7 205.7v38.7h12.2v-16.42c0-8.87 4.86-12.01 11.48-11.86 0.97 0 2.2 0.2 3.17 0.48l0.27-11.19c-7.64-0.51-11.9 1.11-15.04 6.19l-0.15-5.9h-11.93z" fill="url(#paint14_linear_532_36)"/>
  <defs>
    <linearGradient id="paint0_linear_532_36" x1="110.9" x2="197.8" y1="125.8" y2="125.8" gradientUnits="userSpaceOnUse">
      <stop stop-color="#F35300" offset="0"/>
      <stop stop-color="#F77D00" offset="1"/>
    </linearGradient>
    <linearGradient id="paint1_linear_532_36" x1="123.2" x2="192.8" y1="132.3" y2="132.3" gradientUnits="userSpaceOnUse">
      <stop stop-color="#F35300" offset="0"/>
      <stop stop-color="#F77D00" offset="1"/>
    </linearGradient>
    <linearGradient id="paint2_linear_532_36" x1="13.88" x2="233.4" y1="83.26" y2="83.26" gradientUnits="userSpaceOnUse">
      <stop stop-color="#FEC700" offset="0"/>
      <stop stop-color="#FE9900" offset=".521"/>
      <stop stop-color="#E83A00" offset="1"/>
    </linearGradient>
    <linearGradient id="paint3_linear_532_36" x1="16.42" x2="223.9" y1="82.73" y2="82.73" gradientUnits="userSpaceOnUse">
      <stop stop-color="#FEC700" offset="0"/>
      <stop stop-color="#FE9900" offset=".521"/>
      <stop stop-color="#F98900" offset="1"/>
    </linearGradient>
    <radialGradient id="paint4_radial_532_36" cx="0" cy="0" r="1" gradientTransform="translate(59.73 27.25) scale(129.2 128.2)" gradientUnits="userSpaceOnUse">
      <stop stop-color="#FEC700" offset="0"/>
      <stop stop-color="#FE8300" offset=".521"/>
      <stop stop-color="#E83A00" offset="1"/>
    </radialGradient>
    <linearGradient id="paint5_linear_532_36" x1="67.71" x2="191.3" y1="84.02" y2="84.02" gradientUnits="userSpaceOnUse">
      <stop stop-color="#E03200" offset="0"/>
      <stop stop-color="#E83A00" offset="1"/>
    </linearGradient>
    <radialGradient id="paint6_radial_532_36" cx="0" cy="0" r="1" gradientTransform="translate(63.06 28.11) scale(106.1 105.3)" gradientUnits="userSpaceOnUse">
      <stop stop-color="#FEC700" offset="0"/>
      <stop stop-color="#FE8300" offset=".521"/>
      <stop stop-color="#F98900" offset="1"/>
    </radialGradient>
    <linearGradient id="paint7_linear_532_36" x1="56.71" x2="184.1" y1="70.06" y2="70.06" gradientUnits="userSpaceOnUse">
      <stop stop-color="#F97D00" offset="0"/>
      <stop stop-color="#F76000" offset="1"/>
    </linearGradient>
    <linearGradient id="paint8_linear_532_36" x1="30.37" x2="50.62" y1="114" y2="114" gradientUnits="userSpaceOnUse">
      <stop stop-color="#E63200" offset="0"/>
      <stop stop-color="#E83A00" offset="1"/>
    </linearGradient>
    <linearGradient id="paint9_linear_532_36" x1="11.25" x2="70.08" y1="217.3" y2="217.3" gradientUnits="userSpaceOnUse">
      <stop stop-color="#F35300" offset="0"/>
      <stop stop-color="#F76600" offset="1"/>
    </linearGradient>
    <linearGradient id="paint10_linear_532_36" x1="76.63" x2="103.7" y1="225.1" y2="225.1" gradientUnits="userSpaceOnUse">
      <stop stop-color="#F35300" offset="0"/>
      <stop stop-color="#F76600" offset="1"/>
    </linearGradient>
    <linearGradient id="paint11_linear_532_36" x1="108.7" x2="152.6" y1="216.9" y2="216.9" gradientUnits="userSpaceOnUse">
      <stop stop-color="#F35300" offset="0"/>
      <stop stop-color="#F76600" offset="1"/>
    </linearGradient>
    <linearGradient id="paint12_linear_532_36" x1="157.7" x2="171.5" y1="216.4" y2="216.4" gradientUnits="userSpaceOnUse">
      <stop stop-color="#F35300" offset="0"/>
      <stop stop-color="#F76600" offset="1"/>
    </linearGradient>
    <linearGradient id="paint13_linear_532_36" x1="174.8" x2="205.5" y1="220" y2="220" gradientUnits="userSpaceOnUse">
      <stop stop-color="#F35300" offset="0"/>
      <stop stop-color="#F76600" offset="1"/>
    </linearGradient>
    <linearGradient id="paint14_linear_532_36" x1="210.7" x2="237.8" y1="225.1" y2="225.1" gradientUnits="userSpaceOnUse">
      <stop stop-color="#F35300" offset="0"/>
      <stop stop-color="#F76600" offset="1"/>
    </linearGradient>
  </defs>
</svg>